<?xml version="1.0" encoding="utf-8"?>
<!-- Generator: Adobe Illustrator 22.0.1, SVG Export Plug-In . SVG Version: 6.00 Build 0)  -->
<svg version="1.1" id="Layer_1" xmlns="http://www.w3.org/2000/svg" xmlns:xlink="http://www.w3.org/1999/xlink" x="0px" y="0px"
	 viewBox="0 0 48 48" style="enable-background:new 0 0 48 48;" xml:space="preserve">
<style type="text/css">
	.st0{fill:#FFFFFF;}
</style>
<path class="st0" d="M36.5,44c-0.4,0-0.8-0.1-1.1-0.4S35,42.9,35,42.5V28h-2.8c-0.8,0-1.5-0.3-2.1-0.9s-0.9-1.3-0.9-2.1V12.8
	c0-2.6,0.8-4.8,2.4-6.3C33.3,4.8,35.4,4,38,4v38.5c0,0.4-0.1,0.8-0.4,1.1S36.9,44,36.5,44z M15.8,44c-0.4,0-0.8-0.1-1.1-0.4
	c-0.3-0.3-0.4-0.6-0.4-1.1V25.6c-1.7-0.4-3.2-1.2-4.4-2.6c-1.2-1.4-1.8-3-1.8-5V5.5c0-0.4,0.1-0.8,0.4-1.1C8.7,4.1,9.1,4,9.5,4
	s0.8,0.1,1.1,0.4C10.9,4.7,11,5.1,11,5.5V18h3.3V5.5c0-0.4,0.1-0.8,0.4-1.1C15,4.1,15.3,4,15.8,4c0.4,0,0.8,0.1,1.1,0.4
	c0.3,0.3,0.4,0.6,0.4,1.1V18h3.3V5.5c0-0.4,0.1-0.8,0.4-1.1C21.2,4.1,21.6,4,22,4s0.8,0.1,1.1,0.4c0.3,0.3,0.4,0.6,0.4,1.1V18
	c0,1.9-0.6,3.6-1.8,5c-1.2,1.4-2.7,2.3-4.4,2.6v16.9c0,0.4-0.1,0.8-0.4,1.1C16.5,43.9,16.2,44,15.8,44z"/>
</svg>
