<?xml version="1.0" encoding="utf-8"?>
<!-- Generator: Adobe Illustrator 22.0.1, SVG Export Plug-In . SVG Version: 6.00 Build 0)  -->
<svg version="1.1" id="Layer_1" xmlns="http://www.w3.org/2000/svg" xmlns:xlink="http://www.w3.org/1999/xlink" x="0px" y="0px"
	 viewBox="0 0 48 48" style="enable-background:new 0 0 48 48;" xml:space="preserve">
<style type="text/css">
	.st0{fill:#FFC439;}
</style>
<path class="st0" d="M23.2,38c-0.5,0-0.9-0.2-1.2-0.5s-0.5-0.7-0.5-1.2v-10l-9.9-12.7c-0.4-0.5-0.4-1-0.2-1.5
	c0.3-0.5,0.7-0.8,1.3-0.8H37c0.6,0,1,0.3,1.3,0.8c0.3,0.5,0.2,1-0.2,1.5l-9.9,12.7v10c0,0.5-0.2,0.9-0.5,1.2S27,38,26.6,38H23.2z
	 M24.9,26.5l10-12.7h-20L24.9,26.5z"/>
</svg>
