<?xml version="1.0" encoding="utf-8"?>
<!-- Generator: Adobe Illustrator 22.0.1, SVG Export Plug-In . SVG Version: 6.00 Build 0)  -->
<svg version="1.1" id="Layer_1" xmlns="http://www.w3.org/2000/svg" xmlns:xlink="http://www.w3.org/1999/xlink" x="0px" y="0px"
	 viewBox="0 0 48 48" style="enable-background:new 0 0 48 48;" xml:space="preserve">
<style type="text/css">
	.st0{fill:#FFFFFF;}
</style>
<path class="st0" d="M16.1,37.8L24,33l7.9,4.8l-2.1-8.9l6.9-6l-9.1-0.8L24,13.7l-3.5,8.4l-9.1,0.8l6.9,6L16.1,37.8z M24,36.5
	l-9.3,5.6c-0.3,0.2-0.5,0.2-0.8,0.2s-0.6-0.1-0.8-0.3c-0.2-0.2-0.4-0.4-0.5-0.7c-0.1-0.3-0.1-0.6-0.1-0.9L14.9,30l-8.2-7.1
	c-0.3-0.2-0.4-0.5-0.5-0.8c0-0.3,0-0.6,0-0.8c0.1-0.3,0.2-0.5,0.5-0.7s0.5-0.3,0.8-0.3l10.8-1l4.2-10c0.1-0.3,0.3-0.5,0.6-0.7
	c0.3-0.1,0.5-0.2,0.8-0.2c0.3,0,0.5,0.1,0.8,0.2c0.3,0.2,0.5,0.4,0.6,0.7l4.2,10l10.9,1c0.3,0,0.6,0.1,0.8,0.3
	c0.2,0.2,0.4,0.4,0.5,0.7c0.1,0.3,0.1,0.5,0,0.8c0,0.3-0.2,0.5-0.5,0.8L33.1,30l2.4,10.6c0.1,0.3,0,0.6-0.1,0.9
	c-0.1,0.3-0.3,0.5-0.5,0.7c-0.2,0.2-0.5,0.3-0.8,0.3s-0.6-0.1-0.9-0.2L24,36.5z"/>
</svg>
